# xmcd CD database file
#
# Track frame offsets:
#	150
#	9760
#	22012
#	35347
#	48145
#	60160
#	73305
#	84252
#	98217
#	112162
#	124770
#	136692
#	147522
#	161662
#	172590
#	181080
#	194440
#	205987
#	220117
#	231762
#	242760
#	255465
#	267237
#	278670
#	292355
#	303242
#
# Disc length: 4243 seconds
#
# Revision: 0
# Processed by: cddbd v1.5.2PL0 Copyright (c) Steve Scherf et al.
# Submitted via: CDex 1.70beta2
#
DISCID=6b10911a
DTITLE=Jones Classic Country - Jones Classic Country CCC-611
DYEAR=0000
DGENRE=Country
TTITLE0=Loretta Lynn/Your Squaw Is On The Warpath
TTITLE1=Tammy Wynette/He Loves Me All The Way
TTITLE2=Ernest Tubb and Red Foley/Too Old To CutThe Mustard
TTITLE3=Red Foley/Chattanoogie Shoe Shine Boy
TTITLE4=Bobby Goldsboro/Watching Scotty Grow
TTITLE5=Porter Wagoner/Carroll County Accident
TTITLE6=Statler Brothers/Flowers On The Wall
TTITLE7=Loretta Lynn/When The Tingle Becomes A Chill
TTITLE8=Chalrey Pride/Hope You're Feelin' Me (Like I'm Feelin' You)
TTITLE9=Ray Price/I've Got A New Heartache
TTITLE10=Jack Greene/There Goes My Everything
TTITLE11=Sonny James/Empty Arms
TTITLE12=Tanya Tucker/What's Your Mama's Name
TTITLE13=Johnny Horton/Johnny Reb
TTITLE14=Johnny Cash/Guess Things Happen That Way
TTITLE15=Bill Anderson and Mary Lou Turner/Sometimes
TTITLE16=George Jones/I'll Share My World With You
TTITLE17=Johnny Cash/Don't Take Your Guns To Town
TTITLE18=Red Sovine and Webb Pierce/Why Baby Why
TTITLE19=Browns/Old Lamp Lighter
TTITLE20=Skeets McDonald/Don't Let The Stars Get In Your Eyes
TTITLE21=Jean Shepard and Ferlin Husky/Dear John Letter
TTITLE22=Freddie Hart/Easy Loving
TTITLE23=Bobby Helms/My Special Angel
TTITLE24=Buck Owens/Under The Influence Of Love
TTITLE25=Bobby Bare/(Margie's At) The Lincoln Park Inn
EXTD=YEAR: 0000
EXTT0=
EXTT1=
EXTT2=
EXTT3=
EXTT4=
EXTT5=
EXTT6=
EXTT7=
EXTT8=
EXTT9=
EXTT10=
EXTT11=
EXTT12=
EXTT13=
EXTT14=
EXTT15=
EXTT16=
EXTT17=
EXTT18=
EXTT19=
EXTT20=
EXTT21=
EXTT22=
EXTT23=
EXTT24=
EXTT25=
PLAYORDER=
